<svg xmlns="http://www.w3.org/2000/svg" xmlns:xlink="http://www.w3.org/1999/xlink" contentStyleType="text/css" data-diagram-type="CLASS" height="590.4px" preserveAspectRatio="none" style="width:988px;height:590px;background:#FFFFFF;" version="1.1" viewBox="0 0 988 590" width="988px" zoomAndPan="magnify"><defs/><g><!--cluster Java--><g class="cluster" data-entity="Java" data-source-line="1" data-uid="ent0003" id="cluster_Java"><path d="M6.8,4.8109 L32.5156,4.8109 A3,3 0 0 1 34.5156,6.8109 L40.1156,24.5078 L980.4,24.5078 A2,2 0 0 1 982.4,26.5078 L982.4,582.8109 A2,2 0 0 1 980.4,584.8109 L6.8,584.8109 A2,2 0 0 1 4.8,582.8109 L4.8,6.8109 A2,2 0 0 1 6.8,4.8109" fill="none" style="stroke:#000000;stroke-width:1.2;"/><line style="stroke:#000000;stroke-width:1.2;" x1="4.8" x2="40.1156" y1="24.5078" y2="24.5078"/><text fill="#000000" font-family="sans-serif" font-size="11.2" font-weight="bold" lengthAdjust="spacing" textLength="24.9156" x="8" y="18.4969">Java</text></g><!--cluster RPG_un_po_meno_baracca--><g class="cluster" data-entity="RPG_un_po_meno_baracca" data-source-line="1" data-uid="ent0004" id="cluster_RPG_un_po_meno_baracca"><path d="M26,40.8109 L175.5664,40.8109 A3,3 0 0 1 177.5664,42.8109 L183.1664,60.5078 L961.2,60.5078 A2,2 0 0 1 963.2,62.5078 L963.2,563.6109 A2,2 0 0 1 961.2,565.6109 L26,565.6109 A2,2 0 0 1 24,563.6109 L24,42.8109 A2,2 0 0 1 26,40.8109" fill="none" style="stroke:#000000;stroke-width:1.2;"/><line style="stroke:#000000;stroke-width:1.2;" x1="24" x2="183.1664" y1="60.5078" y2="60.5078"/><text fill="#000000" font-family="sans-serif" font-size="11.2" font-weight="bold" lengthAdjust="spacing" textLength="148.7664" x="27.2" y="54.4969">RPG_un_po_meno_baracca</text></g><!--class Tipi--><g class="entity" data-entity="Tipi" data-source-line="1" data-uid="ent0002" id="entity_Tipi"><rect fill="#F1F1F1" height="83.0906" rx="2" ry="2" style="stroke:#181818;stroke-width:0.4;" width="134.0633" x="706.4" y="167.2109"/><ellipse cx="761.0082" cy="180.0109" fill="#EB937F" rx="8.8" ry="8.8" style="stroke:#181818;stroke-width:0.8;"/><path d="M760.0957,180.6484 L760.0957,182.6484 L763.5582,182.6484 L763.5582,181.9109 Q763.5582,181.4234 763.7457,181.2109 Q763.9457,180.9984 764.2457,180.9984 Q764.5457,180.9984 764.7332,181.2109 Q764.9207,181.4234 764.9207,181.9109 L764.9207,184.0109 L758.5207,184.0109 Q758.0207,184.0109 757.8082,183.8234 Q757.6082,183.6359 757.6082,183.3234 Q757.6082,183.0234 757.8207,182.8359 Q758.0332,182.6484 758.5207,182.6484 L758.7332,182.6484 L758.7332,177.3234 L758.5207,177.3234 Q758.0207,177.3234 757.8082,177.1359 Q757.6082,176.9484 757.6082,176.6359 Q757.6082,176.3359 757.8082,176.1484 Q758.0207,175.9609 758.5207,175.9609 L764.6207,175.9609 L764.6207,178.0359 Q764.6207,178.5234 764.4332,178.7359 Q764.2582,178.9359 763.9457,178.9359 Q763.6457,178.9359 763.4582,178.7359 Q763.2707,178.5234 763.2707,178.0359 L763.2707,177.3234 L760.0957,177.3234 L760.0957,179.2859 L761.2832,179.2859 Q761.2832,178.7609 761.3832,178.6109 Q761.5957,178.2859 761.9707,178.2859 Q762.2707,178.2859 762.4582,178.4984 Q762.6457,178.6984 762.6457,179.1859 L762.6457,180.7609 Q762.6457,181.1984 762.5457,181.3484 Q762.3332,181.6609 761.9707,181.6609 Q761.5957,181.6609 761.3832,181.3359 Q761.2832,181.1859 761.2832,180.6484 L760.0957,180.6484 Z " fill="#000000"/><text fill="#000000" font-family="sans-serif" font-size="11.2" lengthAdjust="spacing" textLength="18.0469" x="777.4082" y="184.6484">Tipi</text><line style="stroke:#181818;stroke-width:0.4;" x1="707.2" x2="839.6633" y1="192.8109" y2="192.8109"/><ellipse cx="715.2" cy="204.6594" fill="none" rx="2.4" ry="2.4" style="stroke:#038048;stroke-width:0.8;"/><text fill="#000000" font-family="sans-serif" font-size="11.2" lengthAdjust="spacing" textLength="113.2633" x="722.4" y="208.0969">POZIONE_CURATIVA</text><ellipse cx="715.2" cy="219.5563" fill="none" rx="2.4" ry="2.4" style="stroke:#038048;stroke-width:0.8;"/><text fill="#000000" font-family="sans-serif" font-size="11.2" lengthAdjust="spacing" textLength="88.993" x="722.4" y="222.9938">POZIONE_MANA</text><ellipse cx="715.2" cy="234.4531" fill="none" rx="2.4" ry="2.4" style="stroke:#038048;stroke-width:0.8;"/><text fill="#000000" font-family="sans-serif" font-size="11.2" lengthAdjust="spacing" textLength="37.3406" x="722.4" y="237.8906">ALTRO</text><line style="stroke:#181818;stroke-width:0.4;" x1="707.2" x2="839.6633" y1="243.9016" y2="243.9016"/></g><!--class Oggetto--><g class="entity" data-entity="Oggetto" data-source-line="7" data-uid="ent0005" id="entity_Oggetto"><rect fill="#F1F1F1" height="127.7813" rx="2" ry="2" style="stroke:#181818;stroke-width:0.4;" width="152.1813" x="420" y="144.8109"/><ellipse cx="472.7652" cy="157.6109" fill="#A9DCDF" rx="8.8" ry="8.8" style="stroke:#181818;stroke-width:0.8;"/><path d="M474.5152,159.0234 L471.2027,159.0234 L470.8652,159.8484 L471.2027,159.8484 Q471.6902,159.8484 471.9027,160.0359 Q472.1152,160.2234 472.1152,160.5359 Q472.1152,160.8359 471.9027,161.0234 Q471.6902,161.2109 471.2027,161.2109 L469.3652,161.2109 Q468.8777,161.2109 468.6777,161.0234 Q468.4652,160.8359 468.4652,160.5234 Q468.4652,160.2234 468.6902,160.0359 Q468.9027,159.8359 469.4027,159.8484 L471.5402,154.5234 L470.6527,154.5234 Q470.1652,154.5234 469.9527,154.3359 Q469.7402,154.1484 469.7402,153.8359 Q469.7402,153.5359 469.9527,153.3484 Q470.1652,153.1609 470.6527,153.1609 L473.5902,153.1609 L476.3027,159.8484 Q476.7777,159.8484 476.9277,159.9609 Q477.2402,160.1734 477.2402,160.5359 Q477.2402,160.8359 477.0277,161.0234 Q476.8277,161.2109 476.3402,161.2109 L474.5027,161.2109 Q474.0152,161.2109 473.8027,161.0234 Q473.5902,160.8359 473.5902,160.5234 Q473.5902,160.2234 473.8027,160.0359 Q474.0152,159.8484 474.5027,159.8484 L474.8402,159.8484 L474.5152,159.0234 Z M473.9402,157.6609 L472.8527,154.9609 L471.7527,157.6609 L473.9402,157.6609 Z " fill="#000000"/><text fill="#000000" font-family="sans-serif" font-size="11.2" font-style="italic" lengthAdjust="spacing" textLength="39.8508" x="489.1652" y="162.2484">Oggetto</text><line style="stroke:#181818;stroke-width:0.4;" x1="420.8" x2="571.3813" y1="170.4109" y2="170.4109"/><polygon fill="none" points="428.8,178.2594,432,181.4594,428.8,184.6594,425.6,181.4594" style="stroke:#B38D22;stroke-width:0.8;"/><text fill="#000000" font-family="sans-serif" font-size="11.2" lengthAdjust="spacing" textLength="60.3859" x="436" y="185.6969">String nome</text><polygon fill="none" points="428.8,193.1563,432,196.3563,428.8,199.5563,425.6,196.3563" style="stroke:#B38D22;stroke-width:0.8;"/><text fill="#000000" font-family="sans-serif" font-size="11.2" lengthAdjust="spacing" textLength="39.2164" x="436" y="200.5938">Tipi tipo</text><line style="stroke:#181818;stroke-width:0.4;" x1="420.8" x2="571.3813" y1="206.6047" y2="206.6047"/><ellipse cx="428.8" cy="218.4531" fill="#84BE84" rx="2.4" ry="2.4" style="stroke:#038048;stroke-width:0.8;"/><text fill="#000000" font-family="sans-serif" font-size="11.2" lengthAdjust="spacing" textLength="85.2742" x="436" y="221.8906">String getNome()</text><ellipse cx="428.8" cy="233.35" fill="#84BE84" rx="2.4" ry="2.4" style="stroke:#038048;stroke-width:0.8;"/><text fill="#000000" font-family="sans-serif" font-size="11.2" lengthAdjust="spacing" textLength="65.975" x="436" y="236.7875">Tipi getTipo()</text><ellipse cx="428.8" cy="248.2469" fill="#84BE84" rx="2.4" ry="2.4" style="stroke:#038048;stroke-width:0.8;"/><text fill="#000000" font-family="sans-serif" font-size="11.2" lengthAdjust="spacing" textLength="131.3813" x="436" y="251.6844">boolean usa(Personaggio)</text><ellipse cx="428.8" cy="263.1438" fill="#84BE84" rx="2.4" ry="2.4" style="stroke:#038048;stroke-width:0.8;"/><text fill="#000000" font-family="sans-serif" font-size="11.2" lengthAdjust="spacing" textLength="78.4273" x="436" y="266.5813">String toString()</text></g><!--class PozioneMana--><g class="entity" data-entity="PozioneMana" data-source-line="17" data-uid="ent0006" id="entity_PozioneMana"><rect fill="#F1F1F1" height="53.2969" rx="2" ry="2" style="stroke:#181818;stroke-width:0.4;" width="152.1813" x="377.6" y="447.2109"/><ellipse cx="416.0453" cy="460.0109" fill="#ADD1B2" rx="8.8" ry="8.8" style="stroke:#181818;stroke-width:0.8;"/><path d="M418.2578,456.7109 Q418.3828,456.5359 418.5328,456.4484 Q418.6828,456.3609 418.8578,456.3609 Q419.1578,456.3609 419.3453,456.5734 Q419.5328,456.7734 419.5328,457.2609 L419.5328,458.4234 Q419.5328,458.9109 419.3453,459.1234 Q419.1578,459.3359 418.8578,459.3359 Q418.5828,459.3359 418.4203,459.1734 Q418.2578,459.0234 418.1703,458.6109 Q418.1328,458.3234 417.9828,458.1734 Q417.7203,457.8734 417.2328,457.6984 Q416.7453,457.5234 416.2453,457.5234 Q415.6328,457.5234 415.1203,457.7859 Q414.6203,458.0484 414.2203,458.6484 Q413.8328,459.2484 413.8328,460.0734 L413.8328,460.9484 Q413.8328,461.9359 414.5453,462.5984 Q415.2578,463.2484 416.5328,463.2484 Q417.2828,463.2484 417.8078,463.0484 Q418.1203,462.9234 418.4578,462.5734 Q418.6703,462.3609 418.7828,462.2984 Q418.9078,462.2359 419.0703,462.2359 Q419.3328,462.2359 419.5328,462.4484 Q419.7453,462.6484 419.7453,462.9234 Q419.7453,463.1984 419.4703,463.5234 Q419.0703,463.9859 418.4328,464.2484 Q417.5703,464.6109 416.5328,464.6109 Q415.3203,464.6109 414.3578,464.1109 Q413.5703,463.7109 413.0203,462.8609 Q412.4703,461.9984 412.4703,460.9734 L412.4703,460.0484 Q412.4703,458.9859 412.9578,458.0734 Q413.4578,457.1484 414.3328,456.6609 Q415.2078,456.1609 416.1953,456.1609 Q416.7828,456.1609 417.2953,456.2984 Q417.8203,456.4234 418.2578,456.7109 Z " fill="#000000"/><text fill="#000000" font-family="sans-serif" font-size="11.2" lengthAdjust="spacing" textLength="68.4906" x="432.4453" y="464.6484">PozioneMana</text><line style="stroke:#181818;stroke-width:0.4;" x1="378.4" x2="528.9813" y1="472.8109" y2="472.8109"/><line style="stroke:#181818;stroke-width:0.4;" x1="378.4" x2="528.9813" y1="479.2109" y2="479.2109"/><ellipse cx="386.4" cy="491.0594" fill="#84BE84" rx="2.4" ry="2.4" style="stroke:#038048;stroke-width:0.8;"/><text fill="#000000" font-family="sans-serif" font-size="11.2" lengthAdjust="spacing" textLength="131.3813" x="393.6" y="494.4969">boolean usa(Personaggio)</text></g><!--class Guerriero--><g class="entity" data-entity="Guerriero" data-source-line="21" data-uid="ent0007" id="entity_Guerriero"><rect fill="#F1F1F1" height="68.1938" rx="2" ry="2" style="stroke:#181818;stroke-width:0.4;" width="142.2008" x="36.8" y="440.0109"/><ellipse cx="80.848" cy="452.8109" fill="#ADD1B2" rx="8.8" ry="8.8" style="stroke:#181818;stroke-width:0.8;"/><path d="M83.0605,449.5109 Q83.1855,449.3359 83.3355,449.2484 Q83.4855,449.1609 83.6605,449.1609 Q83.9605,449.1609 84.148,449.3734 Q84.3355,449.5734 84.3355,450.0609 L84.3355,451.2234 Q84.3355,451.7109 84.148,451.9234 Q83.9605,452.1359 83.6605,452.1359 Q83.3855,452.1359 83.223,451.9734 Q83.0605,451.8234 82.973,451.4109 Q82.9355,451.1234 82.7855,450.9734 Q82.523,450.6734 82.0355,450.4984 Q81.548,450.3234 81.048,450.3234 Q80.4355,450.3234 79.923,450.5859 Q79.423,450.8484 79.023,451.4484 Q78.6355,452.0484 78.6355,452.8734 L78.6355,453.7484 Q78.6355,454.7359 79.348,455.3984 Q80.0605,456.0484 81.3355,456.0484 Q82.0855,456.0484 82.6105,455.8484 Q82.923,455.7234 83.2605,455.3734 Q83.473,455.1609 83.5855,455.0984 Q83.7105,455.0359 83.873,455.0359 Q84.1355,455.0359 84.3355,455.2484 Q84.548,455.4484 84.548,455.7234 Q84.548,455.9984 84.273,456.3234 Q83.873,456.7859 83.2355,457.0484 Q82.373,457.4109 81.3355,457.4109 Q80.123,457.4109 79.1605,456.9109 Q78.373,456.5109 77.823,455.6609 Q77.273,454.7984 77.273,453.7734 L77.273,452.8484 Q77.273,451.7859 77.7605,450.8734 Q78.2605,449.9484 79.1355,449.4609 Q80.0105,448.9609 80.998,448.9609 Q81.5855,448.9609 82.098,449.0984 Q82.623,449.2234 83.0605,449.5109 Z " fill="#000000"/><text fill="#000000" font-family="sans-serif" font-size="11.2" lengthAdjust="spacing" textLength="47.3047" x="97.248" y="457.4484">Guerriero</text><line style="stroke:#181818;stroke-width:0.4;" x1="37.6" x2="178.2008" y1="465.6109" y2="465.6109"/><rect fill="none" height="4.8" style="stroke:#C82930;stroke-width:0.8;" width="4.8" x="43.2" y="475.0594"/><text fill="#000000" font-family="sans-serif" font-size="11.2" lengthAdjust="spacing" textLength="69.0867" x="52.8" y="480.8969">int forzaFisica</text><line style="stroke:#181818;stroke-width:0.4;" x1="37.6" x2="178.2008" y1="486.9078" y2="486.9078"/><ellipse cx="45.6" cy="498.7563" fill="#84BE84" rx="2.4" ry="2.4" style="stroke:#038048;stroke-width:0.8;"/><text fill="#000000" font-family="sans-serif" font-size="11.2" lengthAdjust="spacing" textLength="121.4008" x="52.8" y="502.1938">int attacca(Personaggio)</text></g><!--class Mago--><g class="entity" data-entity="Mago" data-source-line="27" data-uid="ent0008" id="entity_Mago"><rect fill="#F1F1F1" height="157.575" rx="2" ry="2" style="stroke:#181818;stroke-width:0.4;" width="142.2008" x="207.2" y="395.2109"/><ellipse cx="260.8922" cy="408.0109" fill="#ADD1B2" rx="8.8" ry="8.8" style="stroke:#181818;stroke-width:0.8;"/><path d="M263.1047,404.7109 Q263.2297,404.5359 263.3797,404.4484 Q263.5297,404.3609 263.7047,404.3609 Q264.0047,404.3609 264.1922,404.5734 Q264.3797,404.7734 264.3797,405.2609 L264.3797,406.4234 Q264.3797,406.9109 264.1922,407.1234 Q264.0047,407.3359 263.7047,407.3359 Q263.4297,407.3359 263.2672,407.1734 Q263.1047,407.0234 263.0172,406.6109 Q262.9797,406.3234 262.8297,406.1734 Q262.5672,405.8734 262.0797,405.6984 Q261.5922,405.5234 261.0922,405.5234 Q260.4797,405.5234 259.9672,405.7859 Q259.4672,406.0484 259.0672,406.6484 Q258.6797,407.2484 258.6797,408.0734 L258.6797,408.9484 Q258.6797,409.9359 259.3922,410.5984 Q260.1047,411.2484 261.3797,411.2484 Q262.1297,411.2484 262.6547,411.0484 Q262.9672,410.9234 263.3047,410.5734 Q263.5172,410.3609 263.6297,410.2984 Q263.7547,410.2359 263.9172,410.2359 Q264.1797,410.2359 264.3797,410.4484 Q264.5922,410.6484 264.5922,410.9234 Q264.5922,411.1984 264.3172,411.5234 Q263.9172,411.9859 263.2797,412.2484 Q262.4172,412.6109 261.3797,412.6109 Q260.1672,412.6109 259.2047,412.1109 Q258.4172,411.7109 257.8672,410.8609 Q257.3172,409.9984 257.3172,408.9734 L257.3172,408.0484 Q257.3172,406.9859 257.8047,406.0734 Q258.3047,405.1484 259.1797,404.6609 Q260.0547,404.1609 261.0422,404.1609 Q261.6297,404.1609 262.1422,404.2984 Q262.6672,404.4234 263.1047,404.7109 Z " fill="#000000"/><text fill="#000000" font-family="sans-serif" font-size="11.2" lengthAdjust="spacing" textLength="28.0164" x="277.2922" y="412.6484">Mago</text><line style="stroke:#181818;stroke-width:0.4;" x1="208" x2="348.6008" y1="420.8109" y2="420.8109"/><rect fill="none" height="4.8" style="stroke:#C82930;stroke-width:0.8;" width="4.8" x="213.6" y="430.2594"/><text fill="#000000" font-family="sans-serif" font-size="11.2" lengthAdjust="spacing" textLength="82.8023" x="223.2" y="436.0969">int potereMagico</text><rect fill="none" height="4.8" style="stroke:#C82930;stroke-width:0.8;" width="4.8" x="213.6" y="445.1563"/><text fill="#000000" font-family="sans-serif" font-size="11.2" lengthAdjust="spacing" textLength="30.4992" x="223.2" y="450.9938">int mp</text><rect fill="none" height="4.8" style="stroke:#C82930;stroke-width:0.8;" width="4.8" x="213.6" y="460.0531"/><text fill="#000000" font-family="sans-serif" font-size="11.2" lengthAdjust="spacing" textLength="51.6578" x="223.2" y="465.8906">int mpMax</text><line style="stroke:#181818;stroke-width:0.4;" x1="208" x2="348.6008" y1="471.9016" y2="471.9016"/><ellipse cx="216" cy="483.75" fill="#84BE84" rx="2.4" ry="2.4" style="stroke:#038048;stroke-width:0.8;"/><text fill="#000000" font-family="sans-serif" font-size="11.2" lengthAdjust="spacing" textLength="74.6867" x="223.2" y="487.1875">int getMpMax()</text><ellipse cx="216" cy="498.6469" fill="#84BE84" rx="2.4" ry="2.4" style="stroke:#038048;stroke-width:0.8;"/><text fill="#000000" font-family="sans-serif" font-size="11.2" lengthAdjust="spacing" textLength="53.5281" x="223.2" y="502.0844">int getMp()</text><ellipse cx="216" cy="513.5438" fill="#84BE84" rx="2.4" ry="2.4" style="stroke:#038048;stroke-width:0.8;"/><text fill="#000000" font-family="sans-serif" font-size="11.2" lengthAdjust="spacing" textLength="73.4453" x="223.2" y="516.9813">void setMp(int)</text><rect fill="#F24D5C" height="4.8" style="stroke:#C82930;stroke-width:0.8;" width="4.8" x="213.6" y="526.0406"/><text fill="#000000" font-family="sans-serif" font-size="11.2" lengthAdjust="spacing" textLength="90.2672" x="223.2" y="531.8781">int calcolaDanno()</text><ellipse cx="216" cy="543.3375" fill="#84BE84" rx="2.4" ry="2.4" style="stroke:#038048;stroke-width:0.8;"/><text fill="#000000" font-family="sans-serif" font-size="11.2" lengthAdjust="spacing" textLength="121.4008" x="223.2" y="546.775">int attacca(Personaggio)</text></g><!--class Personaggio--><g class="entity" data-entity="Personaggio" data-source-line="39" data-uid="ent0009" id="entity_Personaggio"><rect fill="#F1F1F1" height="276.75" rx="2" ry="2" style="stroke:#181818;stroke-width:0.4;" width="173.9688" x="149.2" y="70.4109"/><ellipse cx="201.3391" cy="83.2109" fill="#A9DCDF" rx="8.8" ry="8.8" style="stroke:#181818;stroke-width:0.8;"/><path d="M203.0891,84.6234 L199.7766,84.6234 L199.4391,85.4484 L199.7766,85.4484 Q200.2641,85.4484 200.4766,85.6359 Q200.6891,85.8234 200.6891,86.1359 Q200.6891,86.4359 200.4766,86.6234 Q200.2641,86.8109 199.7766,86.8109 L197.9391,86.8109 Q197.4516,86.8109 197.2516,86.6234 Q197.0391,86.4359 197.0391,86.1234 Q197.0391,85.8234 197.2641,85.6359 Q197.4766,85.4359 197.9766,85.4484 L200.1141,80.1234 L199.2266,80.1234 Q198.7391,80.1234 198.5266,79.9359 Q198.3141,79.7484 198.3141,79.4359 Q198.3141,79.1359 198.5266,78.9484 Q198.7391,78.7609 199.2266,78.7609 L202.1641,78.7609 L204.8766,85.4484 Q205.3516,85.4484 205.5016,85.5609 Q205.8141,85.7734 205.8141,86.1359 Q205.8141,86.4359 205.6016,86.6234 Q205.4016,86.8109 204.9141,86.8109 L203.0766,86.8109 Q202.5891,86.8109 202.3766,86.6234 Q202.1641,86.4359 202.1641,86.1234 Q202.1641,85.8234 202.3766,85.6359 Q202.5891,85.4484 203.0766,85.4484 L203.4141,85.4484 L203.0891,84.6234 Z M202.5141,83.2609 L201.4266,80.5609 L200.3266,83.2609 L202.5141,83.2609 Z " fill="#000000"/><text fill="#000000" font-family="sans-serif" font-size="11.2" font-style="italic" lengthAdjust="spacing" textLength="62.8906" x="217.7391" y="87.8484">Personaggio</text><line style="stroke:#181818;stroke-width:0.4;" x1="150" x2="322.3688" y1="96.0109" y2="96.0109"/><polygon fill="none" points="158,103.8594,161.2,107.0594,158,110.2594,154.8,107.0594" style="stroke:#B38D22;stroke-width:0.8;"/><text fill="#000000" font-family="sans-serif" font-size="11.2" lengthAdjust="spacing" textLength="60.3859" x="165.2" y="111.2969">String nome</text><polygon fill="none" points="158,118.7563,161.2,121.9563,158,125.1563,154.8,121.9563" style="stroke:#B38D22;stroke-width:0.8;"/><text fill="#000000" font-family="sans-serif" font-size="11.2" lengthAdjust="spacing" textLength="65.3516" x="165.2" y="126.1938">Classi classe</text><polygon fill="none" points="158,133.6531,161.2,136.8531,158,140.0531,154.8,136.8531" style="stroke:#B38D22;stroke-width:0.8;"/><text fill="#000000" font-family="sans-serif" font-size="11.2" lengthAdjust="spacing" textLength="23.6578" x="165.2" y="141.0906">int lp</text><polygon fill="none" points="158,148.55,161.2,151.75,158,154.95,154.8,151.75" style="stroke:#B38D22;stroke-width:0.8;"/><text fill="#000000" font-family="sans-serif" font-size="11.2" lengthAdjust="spacing" textLength="44.8164" x="165.2" y="155.9875">int lpMax</text><polygon fill="none" points="158,163.4469,161.2,166.6469,158,169.8469,154.8,166.6469" style="stroke:#B38D22;stroke-width:0.8;"/><text fill="#000000" font-family="sans-serif" font-size="11.2" lengthAdjust="spacing" textLength="100.8602" x="165.2" y="170.8844">Inventario inventario</text><line style="stroke:#181818;stroke-width:0.4;" x1="150" x2="322.3688" y1="176.8953" y2="176.8953"/><ellipse cx="158" cy="188.7438" fill="#84BE84" rx="2.4" ry="2.4" style="stroke:#038048;stroke-width:0.8;"/><text fill="#000000" font-family="sans-serif" font-size="11.2" lengthAdjust="spacing" textLength="71.5859" x="165.2" y="192.1813">int getLpMax()</text><ellipse cx="158" cy="203.6406" fill="#84BE84" rx="2.4" ry="2.4" style="stroke:#038048;stroke-width:0.8;"/><text fill="#000000" font-family="sans-serif" font-size="11.2" lengthAdjust="spacing" textLength="50.4273" x="165.2" y="207.0781">int getLp()</text><ellipse cx="158" cy="218.5375" fill="#84BE84" rx="2.4" ry="2.4" style="stroke:#038048;stroke-width:0.8;"/><text fill="#000000" font-family="sans-serif" font-size="11.2" lengthAdjust="spacing" textLength="70.3445" x="165.2" y="221.975">void setLp(int)</text><ellipse cx="158" cy="233.4344" fill="#84BE84" rx="2.4" ry="2.4" style="stroke:#038048;stroke-width:0.8;"/><text fill="#000000" font-family="sans-serif" font-size="11.2" lengthAdjust="spacing" textLength="82.7969" x="165.2" y="236.8719">boolean isAlive()</text><ellipse cx="158" cy="248.3313" fill="#84BE84" rx="2.4" ry="2.4" style="stroke:#038048;stroke-width:0.8;"/><text fill="#000000" font-family="sans-serif" font-size="11.2" lengthAdjust="spacing" textLength="90.8688" x="165.2" y="251.7688">Classi getClasse()</text><ellipse cx="158" cy="263.2281" fill="#84BE84" rx="2.4" ry="2.4" style="stroke:#038048;stroke-width:0.8;"/><text fill="#000000" font-family="sans-serif" font-size="11.2" lengthAdjust="spacing" textLength="102.0852" x="165.2" y="266.6656">void riceviDanno(int)</text><ellipse cx="158" cy="278.125" fill="#84BE84" rx="2.4" ry="2.4" style="stroke:#038048;stroke-width:0.8;"/><text fill="#000000" font-family="sans-serif" font-size="11.2" font-style="italic" lengthAdjust="spacing" textLength="121.4008" x="165.2" y="281.5625">int attacca(Personaggio)</text><ellipse cx="158" cy="293.0219" fill="#84BE84" rx="2.4" ry="2.4" style="stroke:#038048;stroke-width:0.8;"/><text fill="#000000" font-family="sans-serif" font-size="11.2" lengthAdjust="spacing" textLength="153.1688" x="165.2" y="296.4594">void aggiungiOggetto(Oggetto)</text><ellipse cx="158" cy="307.9188" fill="#84BE84" rx="2.4" ry="2.4" style="stroke:#038048;stroke-width:0.8;"/><text fill="#000000" font-family="sans-serif" font-size="11.2" lengthAdjust="spacing" textLength="146.9125" x="165.2" y="311.3563">void rimuoviOggetto(Oggetto)</text><ellipse cx="158" cy="322.8156" fill="#84BE84" rx="2.4" ry="2.4" style="stroke:#038048;stroke-width:0.8;"/><text fill="#000000" font-family="sans-serif" font-size="11.2" lengthAdjust="spacing" textLength="126.3883" x="165.2" y="326.2531">boolean usaOggetto(Tipi)</text><ellipse cx="158" cy="337.7125" fill="#84BE84" rx="2.4" ry="2.4" style="stroke:#038048;stroke-width:0.8;"/><text fill="#000000" font-family="sans-serif" font-size="11.2" lengthAdjust="spacing" textLength="78.4273" x="165.2" y="341.15">String toString()</text></g><!--class PozioneCurativa--><g class="entity" data-entity="PozioneCurativa" data-source-line="59" data-uid="ent0010" id="entity_PozioneCurativa"><rect fill="#F1F1F1" height="53.2969" rx="2" ry="2" style="stroke:#181818;stroke-width:0.4;" width="152.1813" x="557.6" y="447.2109"/><ellipse cx="589.5811" cy="460.0109" fill="#ADD1B2" rx="8.8" ry="8.8" style="stroke:#181818;stroke-width:0.8;"/><path d="M591.7936,456.7109 Q591.9186,456.5359 592.0686,456.4484 Q592.2186,456.3609 592.3936,456.3609 Q592.6936,456.3609 592.8811,456.5734 Q593.0686,456.7734 593.0686,457.2609 L593.0686,458.4234 Q593.0686,458.9109 592.8811,459.1234 Q592.6936,459.3359 592.3936,459.3359 Q592.1186,459.3359 591.9561,459.1734 Q591.7936,459.0234 591.7061,458.6109 Q591.6686,458.3234 591.5186,458.1734 Q591.2561,457.8734 590.7686,457.6984 Q590.2811,457.5234 589.7811,457.5234 Q589.1686,457.5234 588.6561,457.7859 Q588.1561,458.0484 587.7561,458.6484 Q587.3686,459.2484 587.3686,460.0734 L587.3686,460.9484 Q587.3686,461.9359 588.0811,462.5984 Q588.7936,463.2484 590.0686,463.2484 Q590.8186,463.2484 591.3436,463.0484 Q591.6561,462.9234 591.9936,462.5734 Q592.2061,462.3609 592.3186,462.2984 Q592.4436,462.2359 592.6061,462.2359 Q592.8686,462.2359 593.0686,462.4484 Q593.2811,462.6484 593.2811,462.9234 Q593.2811,463.1984 593.0061,463.5234 Q592.6061,463.9859 591.9686,464.2484 Q591.1061,464.6109 590.0686,464.6109 Q588.8561,464.6109 587.8936,464.1109 Q587.1061,463.7109 586.5561,462.8609 Q586.0061,461.9984 586.0061,460.9734 L586.0061,460.0484 Q586.0061,458.9859 586.4936,458.0734 Q586.9936,457.1484 587.8686,456.6609 Q588.7436,456.1609 589.7311,456.1609 Q590.3186,456.1609 590.8311,456.2984 Q591.3561,456.4234 591.7936,456.7109 Z " fill="#000000"/><text fill="#000000" font-family="sans-serif" font-size="11.2" lengthAdjust="spacing" textLength="82.1789" x="605.2213" y="464.6484">PozioneCurativa</text><line style="stroke:#181818;stroke-width:0.4;" x1="558.4" x2="708.9813" y1="472.8109" y2="472.8109"/><line style="stroke:#181818;stroke-width:0.4;" x1="558.4" x2="708.9813" y1="479.2109" y2="479.2109"/><ellipse cx="566.4" cy="491.0594" fill="#84BE84" rx="2.4" ry="2.4" style="stroke:#038048;stroke-width:0.8;"/><text fill="#000000" font-family="sans-serif" font-size="11.2" lengthAdjust="spacing" textLength="131.3813" x="573.6" y="494.4969">boolean usa(Personaggio)</text></g><!--class Classi--><g class="entity" data-entity="Classi" data-source-line="63" data-uid="ent0011" id="entity_Classi"><rect fill="#F1F1F1" height="68.1938" rx="2" ry="2" style="stroke:#181818;stroke-width:0.4;" width="80.5406" x="869.2" y="174.8109"/><ellipse cx="892.2011" cy="187.6109" fill="#EB937F" rx="8.8" ry="8.8" style="stroke:#181818;stroke-width:0.8;"/><path d="M891.2886,188.2484 L891.2886,190.2484 L894.7511,190.2484 L894.7511,189.5109 Q894.7511,189.0234 894.9386,188.8109 Q895.1386,188.5984 895.4386,188.5984 Q895.7386,188.5984 895.9261,188.8109 Q896.1136,189.0234 896.1136,189.5109 L896.1136,191.6109 L889.7136,191.6109 Q889.2136,191.6109 889.0011,191.4234 Q888.8011,191.2359 888.8011,190.9234 Q888.8011,190.6234 889.0136,190.4359 Q889.2261,190.2484 889.7136,190.2484 L889.9261,190.2484 L889.9261,184.9234 L889.7136,184.9234 Q889.2136,184.9234 889.0011,184.7359 Q888.8011,184.5484 888.8011,184.2359 Q888.8011,183.9359 889.0011,183.7484 Q889.2136,183.5609 889.7136,183.5609 L895.8136,183.5609 L895.8136,185.6359 Q895.8136,186.1234 895.6261,186.3359 Q895.4511,186.5359 895.1386,186.5359 Q894.8386,186.5359 894.6511,186.3359 Q894.4636,186.1234 894.4636,185.6359 L894.4636,184.9234 L891.2886,184.9234 L891.2886,186.8859 L892.4761,186.8859 Q892.4761,186.3609 892.5761,186.2109 Q892.7886,185.8859 893.1636,185.8859 Q893.4636,185.8859 893.6511,186.0984 Q893.8386,186.2984 893.8386,186.7859 L893.8386,188.3609 Q893.8386,188.7984 893.7386,188.9484 Q893.5261,189.2609 893.1636,189.2609 Q892.7886,189.2609 892.5761,188.9359 Q892.4761,188.7859 892.4761,188.2484 L891.2886,188.2484 Z " fill="#000000"/><text fill="#000000" font-family="sans-serif" font-size="11.2" lengthAdjust="spacing" textLength="30.4938" x="905.8458" y="192.2484">Classi</text><line style="stroke:#181818;stroke-width:0.4;" x1="870" x2="948.9406" y1="200.4109" y2="200.4109"/><ellipse cx="878" cy="212.2594" fill="none" rx="2.4" ry="2.4" style="stroke:#038048;stroke-width:0.8;"/><text fill="#000000" font-family="sans-serif" font-size="11.2" lengthAdjust="spacing" textLength="59.7406" x="885.2" y="215.6969">GUERIERO</text><ellipse cx="878" cy="227.1563" fill="none" rx="2.4" ry="2.4" style="stroke:#038048;stroke-width:0.8;"/><text fill="#000000" font-family="sans-serif" font-size="11.2" lengthAdjust="spacing" textLength="34.2234" x="885.2" y="230.5938">MAGO</text><line style="stroke:#181818;stroke-width:0.4;" x1="870" x2="948.9406" y1="236.6047" y2="236.6047"/></g><!--class Inventario--><g class="entity" data-entity="Inventario" data-source-line="68" data-uid="ent0012" id="entity_Inventario"><rect fill="#F1F1F1" height="112.8844" rx="2" ry="2" style="stroke:#181818;stroke-width:0.4;" width="213.1906" x="737.6" y="417.6109"/><ellipse cx="816.2023" cy="430.4109" fill="#ADD1B2" rx="8.8" ry="8.8" style="stroke:#181818;stroke-width:0.8;"/><path d="M818.4148,427.1109 Q818.5398,426.9359 818.6898,426.8484 Q818.8398,426.7609 819.0148,426.7609 Q819.3148,426.7609 819.5023,426.9734 Q819.6898,427.1734 819.6898,427.6609 L819.6898,428.8234 Q819.6898,429.3109 819.5023,429.5234 Q819.3148,429.7359 819.0148,429.7359 Q818.7398,429.7359 818.5773,429.5734 Q818.4148,429.4234 818.3273,429.0109 Q818.2898,428.7234 818.1398,428.5734 Q817.8773,428.2734 817.3898,428.0984 Q816.9023,427.9234 816.4023,427.9234 Q815.7898,427.9234 815.2773,428.1859 Q814.7773,428.4484 814.3773,429.0484 Q813.9898,429.6484 813.9898,430.4734 L813.9898,431.3484 Q813.9898,432.3359 814.7023,432.9984 Q815.4148,433.6484 816.6898,433.6484 Q817.4398,433.6484 817.9648,433.4484 Q818.2773,433.3234 818.6148,432.9734 Q818.8273,432.7609 818.9398,432.6984 Q819.0648,432.6359 819.2273,432.6359 Q819.4898,432.6359 819.6898,432.8484 Q819.9023,433.0484 819.9023,433.3234 Q819.9023,433.5984 819.6273,433.9234 Q819.2273,434.3859 818.5898,434.6484 Q817.7273,435.0109 816.6898,435.0109 Q815.4773,435.0109 814.5148,434.5109 Q813.7273,434.1109 813.1773,433.2609 Q812.6273,432.3984 812.6273,431.3734 L812.6273,430.4484 Q812.6273,429.3859 813.1148,428.4734 Q813.6148,427.5484 814.4898,427.0609 Q815.3648,426.5609 816.3523,426.5609 Q816.9398,426.5609 817.4523,426.6984 Q817.9773,426.8234 818.4148,427.1109 Z " fill="#000000"/><text fill="#000000" font-family="sans-serif" font-size="11.2" lengthAdjust="spacing" textLength="49.1859" x="832.6023" y="435.0484">Inventario</text><line style="stroke:#181818;stroke-width:0.4;" x1="738.4" x2="949.9906" y1="443.2109" y2="443.2109"/><rect fill="none" height="4.8" style="stroke:#C82930;stroke-width:0.8;" width="4.8" x="744" y="452.6594"/><text fill="#000000" font-family="sans-serif" font-size="11.2" lengthAdjust="spacing" textLength="148.7938" x="753.6" y="458.4969">ArrayList&lt;Oggetto&gt; inventario</text><line style="stroke:#181818;stroke-width:0.4;" x1="738.4" x2="949.9906" y1="464.5078" y2="464.5078"/><ellipse cx="746.4" cy="476.3563" fill="#84BE84" rx="2.4" ry="2.4" style="stroke:#038048;stroke-width:0.8;"/><text fill="#000000" font-family="sans-serif" font-size="11.2" lengthAdjust="spacing" textLength="153.1688" x="753.6" y="479.7938">void aggiungiOggetto(Oggetto)</text><ellipse cx="746.4" cy="491.2531" fill="#84BE84" rx="2.4" ry="2.4" style="stroke:#038048;stroke-width:0.8;"/><text fill="#000000" font-family="sans-serif" font-size="11.2" lengthAdjust="spacing" textLength="146.9125" x="753.6" y="494.6906">void rimuoviOggetto(Oggetto)</text><ellipse cx="746.4" cy="506.15" fill="#84BE84" rx="2.4" ry="2.4" style="stroke:#038048;stroke-width:0.8;"/><text fill="#000000" font-family="sans-serif" font-size="11.2" lengthAdjust="spacing" textLength="192.3906" x="753.6" y="509.5875">boolean usaOggetto(Tipi,Personaggio)</text><ellipse cx="746.4" cy="521.0469" fill="#84BE84" rx="2.4" ry="2.4" style="stroke:#038048;stroke-width:0.8;"/><text fill="#000000" font-family="sans-serif" font-size="11.2" lengthAdjust="spacing" textLength="78.4273" x="753.6" y="524.4844">String toString()</text></g><!--reverse link Oggetto to PozioneMana--><g class="link" data-entity-1="Oggetto" data-entity-2="PozioneMana" data-source-line="79" data-uid="lnk13" id="link_Oggetto_PozioneMana"><path codeLine="79" d="M483.5053,287.3002 C474.5613,342.9082 464.296,406.7229 457.824,446.9469" fill="none" id="Oggetto-backto-PozioneMana" style="stroke:#181818;stroke-width:0.8;"/><polygon fill="none" points="485.792,273.0829,478.7662,286.538,488.2444,288.0625,485.792,273.0829" style="stroke:#181818;stroke-width:0.8;"/></g><!--reverse link Personaggio to Guerriero--><g class="link" data-entity-1="Personaggio" data-entity-2="Guerriero" data-source-line="80" data-uid="lnk14" id="link_Personaggio_Guerriero"><path codeLine="80" d="M162.7107,360.5409 C145.9587,395.0449 135.768,416.0349 124.168,439.9149" fill="none" id="Personaggio-backto-Guerriero" style="stroke:#181818;stroke-width:0.8;"/><polygon fill="none" points="169,347.5869,158.3927,358.4445,167.0287,362.6373,169,347.5869" style="stroke:#181818;stroke-width:0.8;"/></g><!--reverse link Personaggio to Mago--><g class="link" data-entity-1="Personaggio" data-entity-2="Mago" data-source-line="81" data-uid="lnk15" id="link_Personaggio_Mago"><path codeLine="81" d="M260.4779,361.8043 C263.1019,378.1243 263.424,380.0989 265.848,395.1549" fill="none" id="Personaggio-backto-Mago" style="stroke:#181818;stroke-width:0.8;"/><polygon fill="none" points="258.192,347.5869,255.7388,362.5663,265.2171,361.0424,258.192,347.5869" style="stroke:#181818;stroke-width:0.8;"/></g><!--reverse link Oggetto to PozioneCurativa--><g class="link" data-entity-1="Oggetto" data-entity-2="PozioneCurativa" data-source-line="82" data-uid="lnk16" id="link_Oggetto_PozioneCurativa"><path codeLine="82" d="M535.799,285.8487 C564.823,341.4567 598.896,406.7229 619.888,446.9469" fill="none" id="Oggetto-backto-PozioneCurativa" style="stroke:#181818;stroke-width:0.8;"/><polygon fill="none" points="529.136,273.0829,531.5437,288.0697,540.0542,283.6277,529.136,273.0829" style="stroke:#181818;stroke-width:0.8;"/></g><!--SRC=[jLJDRjim3BxxAGJqag1Bdw0OO6HPaC6EWopTOHU3yJI3W2qQicnixVBkfHJ5TjUcyO3i9Fw87_bH5ALgIl45MhZRRfPfezAAqb8gIlUW8SlWReSLYgVWLeXDydsLh1Vf_64RxbRVmg4j3jTE3wFTDWaEGG3xsZ204La1TVrkXYJFfJ74IMx4LwDHvK9HALbpkGrMnD3UmrVNx9nCsUJSRE2Jd65FL4XGegbXif6w9WLvZZJjmmqT1RxEHGQNYzlG8vAICIXmNJYRuZ06RTb8hL5gItOcK1dna_GZVCOQCs1qQm5ZxDrNw2FWOyXxv8gCr5nuZXbvKrbrGWo_V3vkO6nLry7EuBIMy8UedSgEgG_EeCYeW4-W57L1Pwl-Xq4OnBun37CRZqSOgzkiHTK9bj2DMAbMAWEQ4R0JUrxHtqIZbqGZJxH_Pwp30jlZlFaAECn9iW_LcCaMZntn04ydueUpxV71LcjKZluVJFmv02yRQjzo3uRnvBL_uWhpFcyq66mlpxoyj3zyqzm6MJuijgi5BmYMut2PZFiqWpUrinrg3RyZhCszv_pnvLF_dvv-6BLFWc3Cehl_CvkDNJh1s0zp4RJRFTU3jFlcgenFO_SC]--></g></svg>